/vscmnt/brussel_pixiu_data/_data_brussel/112/vsc11236/PredSimResults/SUBJ09opt3D/weighted-LRposFixed/expIG/worker_05.mot
version=1
nRows=4
nColumns=50
inDegrees=yes
endheader
                time	         pelvis_tilt	         pelvis_list	     pelvis_rotation	           pelvis_tx	           pelvis_ty	           pelvis_tz	       hip_flexion_r	     hip_adduction_r	      hip_rotation_r	        knee_angle_r	       ankle_angle_r	         mtp_angle_r	       hip_flexion_l	     hip_adduction_l	      hip_rotation_l	        knee_angle_l	       ankle_angle_l	         mtp_angle_l	    lumbar_extension	      lumbar_bending	     lumbar_rotation	 ercspn_r/activation	 intobl_r/activation	 extobl_r/activation	    abd_r/activation	    add_r/activation	hamstrings_r/activation	bifemsh_r/activation	glut_max_r/activation	iliopsoas_r/activation	rect_fem_r/activation	  vasti_r/activation	gastroc_r/activation	 soleus_r/activation	tib_ant_r/activation	 ercspn_l/activation	 intobl_l/activation	 extobl_l/activation	    abd_l/activation	    add_l/activation	hamstrings_l/activation	bifemsh_l/activation	glut_max_l/activation	iliopsoas_l/activation	rect_fem_l/activation	  vasti_l/activation	gastroc_l/activation	 soleus_l/activation	tib_ant_l/activation	
          1.33148064	         -3.49356501	         -1.50946827	          7.58622081	          1.46462871	          0.99579618	         -0.00116799	         22.94265385	          0.06638592	         -4.19605675	          3.07964449	          2.61096235	          0.22806158	        -11.39911385	         -2.94010096	         -3.04627176	        -12.12949359	          5.87073727	         35.71121382	        -12.49107994	         -1.40433492	        -11.12945938	          0.03970556	          0.22668282	          0.05538065	          0.01000001	          0.25294124	          0.05356647	          0.01221950	          0.01000003	          0.09287191	          0.02059790	          0.02552879	          0.01000006	          0.01000002	          0.32377313	          0.01000089	          0.01000003	          0.01000001	          0.05734465	          0.01000011	          0.01264046	          0.29370210	          0.01824442	          0.01146667	          0.01000235	          0.01000014	          0.33004810	          0.27429225	          0.01221932	
          1.34479545	         -3.56519077	         -1.70007677	          7.57779142	          1.48428986	          0.99366448	         -0.00009869	         22.60166264	          0.47846446	         -4.43257801	          2.16353793	          1.86968178	          0.23826938	        -11.95995203	         -3.35317344	         -3.59842024	        -12.94737075	          4.91195918	         37.43931012	        -11.86475709	         -0.84802462	        -11.33265109	          0.03249460	          0.19197106	          0.04532290	          0.01000003	          0.23803589	          0.06160137	          0.01000082	          0.02997380	          0.07600532	          0.01685710	          0.07022148	          0.01330768	          0.01493101	          0.33635082	          0.01000026	          0.01000006	          0.01000009	          0.04693021	          0.01000014	          0.03352817	          0.28418958	          0.01493105	          0.01000030	          0.01000018	          0.01000012	          0.30376190	          0.25206639	          0.01000016	
          1.35811026	         -3.61335796	         -1.93806997	          7.53299660	          1.50435883	          0.99174179	          0.00095535	         22.14162219	          0.89482412	         -4.67241098	          1.17423986	          1.11824344	          0.21905597	        -12.39367626	         -3.82623754	         -4.18627826	        -14.05662599	          3.79932737	         39.17633659	        -11.20989456	         -0.21817248	        -11.47512570	          0.02659325	          0.15710703	          0.03709176	          0.06661578	          0.19480597	          0.07135263	          0.01000764	          0.04348137	          0.06220189	          0.01379567	          0.05746863	          0.01089090	          0.01221938	          0.40443295	          0.01000040	          0.01000002	          0.01000010	          0.03840715	          0.01000010	          0.04086807	          0.26701798	          0.01221941	          0.01931302	          0.01000011	          0.01000004	          0.27370685	          0.22765792	          0.01000001	
          1.37142506	         -3.64310978	         -2.21555666	          7.45062676	          1.52451513	          0.99028694	          0.00206986	         21.55045830	          1.35922642	         -5.00912537	          0.42572229	          0.20045900	          0.18828626	        -12.61073721	         -4.35874086	         -4.80438417	        -15.55808408	          2.47803927	         40.86674499	        -10.56255314	          0.46544744	        -11.55420639	          0.02176369	          0.12857462	          0.03035549	          0.11373096	          0.15942737	          0.07185833	          0.01000142	          0.06044475	          0.05090532	          0.01129024	          0.04703438	          0.01000011	          0.01000023	          0.45156041	          0.01383769	          0.01000002	          0.01000006	          0.03143197	          0.01000010	          0.05970896	          0.21853035	          0.01000024	          0.03003355	          0.01000010	          0.01000003	          0.22399871	          0.18843461	          0.01000001	
